<?xml version="1.0" encoding="iso-8859-1"?>
<!-- Uploaded to: SVG Repo, www.svgrepo.com, Generator: SVG Repo Mixer Tools -->
<!DOCTYPE svg PUBLIC "-//W3C//DTD SVG 1.1//EN" "http://www.w3.org/Graphics/SVG/1.1/DTD/svg11.dtd">
<svg width="25" height="25" viewBox="0 0 25 25" fill="none" xmlns="http://www.w3.org/2000/svg">
<g clip-path="url(#clip0_27_3)">
<path d="M12.5001 25C19.3925 25 24.9998 19.3924 24.9998 12.4999C24.9998 5.60755 19.3925 0 12.5001 0C5.60768 0 0.000244141 5.60755 0.000244141 12.4999C0.000244141 19.3924 5.60768 25 12.5001 25ZM12.5001 1.71115C18.4489 1.71115 23.2886 6.55096 23.2888 12.4999C23.2888 18.4489 18.4491 23.2887 12.5001 23.2889C6.55121 23.2887 1.71151 18.4489 1.71151 12.4998C1.71151 6.55108 6.55121 1.71115 12.5001 1.71115Z" fill="black"/>
<path d="M10.8214 17.8538C11.1556 18.1878 11.6973 18.1877 12.0313 17.8538C12.3656 17.5196 12.3656 16.9779 12.0312 16.6437L8.74352 13.3561L18.264 13.3552C18.7365 13.3551 19.1195 12.9721 19.1195 12.4994C19.1194 12.0269 18.7364 11.644 18.2639 11.644L8.74307 11.645L12.0316 8.35669C12.3657 8.02256 12.3657 7.4807 12.0316 7.14668C11.8644 6.97968 11.6455 6.89606 11.4265 6.89606C11.2076 6.89606 10.9887 6.97968 10.8215 7.14657L6.07265 11.8954C5.91214 12.0557 5.82202 12.2733 5.82202 12.5003C5.82214 12.7273 5.91226 12.9447 6.07276 13.1055L10.8214 17.8538Z" fill="black"/>
</g>
<defs>
<clipPath id="clip0_27_3">
<rect width="25" height="25" fill="white"/>
</clipPath>
</defs>
</svg>
