<svg width="25" height="25" viewBox="0 0 25 25" fill="none" xmlns="http://www.w3.org/2000/svg">
<g clip-path="url(#clip0_27_7)">
<path d="M12.5 0C5.6075 0 0 5.60758 0 12.5001C0 19.3925 5.6075 25 12.5 25C19.3925 25 25 19.3925 25 12.5001C25 5.60758 19.3925 0 12.5 0ZM12.5 22.7273C6.86061 22.7273 2.27273 18.1393 2.27273 12.5001C2.27273 6.86076 6.86061 2.27273 12.5 2.27273C18.1394 2.27273 22.7273 6.86076 22.7273 12.5001C22.7273 18.1393 18.1393 22.7273 12.5 22.7273Z" fill="black"/>
<path d="M14.0611 7.15114C13.6174 6.70743 12.8978 6.70743 12.454 7.15114C12.0102 7.59486 12.0102 8.3144 12.454 8.75819L15.0597 11.3639L7.19683 11.3643C6.56926 11.3643 6.06047 11.8732 6.06055 12.5008C6.06055 13.1283 6.56941 13.6371 7.19699 13.6371L15.0594 13.6366L12.454 16.2421C12.0102 16.6858 12.0102 17.4054 12.454 17.8492C12.6758 18.0711 12.9666 18.1821 13.2574 18.1821C13.5483 18.1821 13.8391 18.0711 14.0609 17.8492L18.6064 13.3036C18.8197 13.0904 18.9394 12.8014 18.9394 12.5C18.9394 12.1986 18.8196 11.9096 18.6065 11.6965L14.0611 7.15114Z" fill="black"/>
</g>
<defs>
<clipPath id="clip0_27_7">
<rect width="25" height="25" fill="white"/>
</clipPath>
</defs>
</svg>
